<?xml version="1.0" encoding="UTF-8" standalone="no"?>
<!-- Created with Inkscape (http://www.inkscape.org/) -->

<svg
   version="1.1"
   id="svg2"
   width="146.55673"
   height="180.15744"
   viewBox="0 0 146.55673 180.15744"
   sodipodi:docname="14603832_5506596.ps"
   xmlns:inkscape="http://www.inkscape.org/namespaces/inkscape"
   xmlns:sodipodi="http://sodipodi.sourceforge.net/DTD/sodipodi-0.dtd"
   xmlns="http://www.w3.org/2000/svg"
   xmlns:svg="http://www.w3.org/2000/svg">
  <defs
     id="defs6">
    <clipPath
       clipPathUnits="userSpaceOnUse"
       id="clipPath172">
      <path
         d="m 2155.32,1883.59 c 26.28,-22.35 63.51,-30.18 98,-17.12 33.86,12.86 56.34,42.41 61.74,75.69 3.04,18.06 15.7,33.08 33.08,38.97 l 42.01,14.23 c 16.56,5.55 34.6,1.86 48.04,-9.18 14.55,-11.94 31.17,-20.66 49.11,-26.36 16.42,-5.21 29.4,-18.06 33.8,-34.94 l 1.87,-6.97 c 4.7,-18.25 -1.67,-37.1 -15.32,-50.06 -24.54,-23.26 -36.32,-58.61 -27.78,-93.84 12.96,-53.59 67.73,-86.09 121.23,-71.17 47.22,13.06 78.13,60.96 70.38,109.35 -6.47,40.74 -36.61,70.78 -73.33,79.71 -17.86,4.42 -32.39,17.37 -37,35.14 -5.75,21.65 0.45,44.61 16.04,60.68 23.61,24.3 33.7,59.98 23.88,94.49 -0.97,3.39 -2.05,6.77 -3.41,10.13 -17.66,44.17 -66.55,69.5 -112.78,58.6 -40.05,-9.52 -67.83,-41.62 -74.11,-78.81 -0.71,-4.05 -1.91,-7.91 -3.45,-11.62 -5.35,-12.84 -15.46,-23.18 -28.95,-27.75 l -43.19,-14.63 c -7.94,-2.69 -16.13,-3.05 -23.99,-1.61 -9.62,1.76 -18.76,6.28 -26.27,13.19 -28.17,26.02 -70.38,34.36 -108.17,16.6 -41.72,-19.73 -64.4,-67.64 -52.91,-112.3 5.34,-20.71 16.69,-37.84 31.48,-50.42 z"
         id="path170" />
    </clipPath>
    <linearGradient
       x1="0"
       y1="0"
       x2="1"
       y2="0"
       gradientUnits="userSpaceOnUse"
       gradientTransform="matrix(551.8,0,0,-551.8,2120.87,1926.34)"
       spreadMethod="pad"
       id="linearGradient178">
      <stop
         style="stop-opacity:1;stop-color:#37ade4"
         offset="0"
         id="stop174" />
      <stop
         style="stop-opacity:1;stop-color:#3dbfd2"
         offset="1"
         id="stop176" />
    </linearGradient>
    <clipPath
       clipPathUnits="userSpaceOnUse"
       id="clipPath188">
      <path
         d="m 2887.93,1825.64 c -7.46,2.41 -14.95,3.83 -22.36,4.46 -48.71,4.12 -93.83,-28.7 -103.88,-77.69 -7.26,-35.43 5.69,-70.28 30.92,-92.66 13.65,-12.17 19.53,-30.92 15.22,-48.79 l -10.41,-43.09 c -4.42,-18.06 -18.56,-31.81 -36.52,-36.61 -16.09,-4.22 -30.82,-12.57 -42.7,-24.06 -13.45,-12.96 -32.59,-17.96 -50.35,-12.36 l -6.88,2.26 c -17.96,5.69 -30.43,21.1 -34.06,39.56 -6.57,33.17 -30.22,62.03 -64.48,73.72 -52.23,17.66 -108.96,-11.19 -125.07,-64.4 -14.13,-46.92 9.82,-98.65 54.78,-117.99 36.56,-15.59 76.3,-7.53 103.57,16.55 16.49,14.57 39.31,19.62 60.26,12.9 17.96,-5.7 30.43,-21.11 34.07,-39.66 2.32,-11.64 6.76,-22.7 12.97,-32.69 13.96,-22.39 36.93,-39.23 65.45,-44.46 46.73,-8.64 94.24,19.04 109.75,64 13.45,38.97 1.07,79.51 -26.9,104.84 -13.65,12.27 -20.32,30.53 -16,48.29 l 10.8,44.37 c 4.32,18.06 18.75,31.51 36.71,36.31 36.91,9.82 66.55,41.14 71.66,82.47 5.69,45.83 -22.68,90.59 -66.55,104.73 z"
         id="path186" />
    </clipPath>
    <linearGradient
       x1="0"
       y1="0"
       x2="1"
       y2="0"
       gradientUnits="userSpaceOnUse"
       gradientTransform="matrix(521.887,0,0,-521.887,2433.32,1584.75)"
       spreadMethod="pad"
       id="linearGradient194">
      <stop
         style="stop-opacity:1;stop-color:#37ade4"
         offset="0"
         id="stop190" />
      <stop
         style="stop-opacity:1;stop-color:#3dbfd2"
         offset="1"
         id="stop192" />
    </linearGradient>
    <clipPath
       clipPathUnits="userSpaceOnUse"
       id="clipPath204">
      <path
         d="m 2304.16,1386.86 c -17.86,-4.31 -36.51,1.67 -48.68,15.41 l -27.28,30.92 c -13.5,15.31 -16.68,36.56 -10.25,55.95 4.92,14.83 6.26,30.7 3.76,46.04 -2.85,18.46 3.93,37 18.75,48.29 l 1.66,1.27 c 17.08,13.03 39.56,14.9 59.53,7 30.29,-11.96 65.73,-8.64 93.9,12.06 44.37,32.68 53.21,95.81 18.75,139.38 -30.33,38.49 -86.38,48.4 -128,22.58 -35.04,-21.69 -51.14,-61.06 -45.25,-98.46 2.94,-18.15 -3.44,-36.51 -18.07,-47.7 l -6.38,-4.91 c -14.92,-11.48 -34.75,-12.86 -52.02,-5.3 -15.92,7.03 -33.37,9.41 -50.5,7.47 -20.89,-2.35 -41.28,-11.26 -57.67,-27.49 -33.87,-33.38 -38.29,-88.15 -10.41,-126.63 24.25,-33.38 64.59,-46.43 101.4,-37.89 10.64,2.45 21.58,1.59 31.25,-2.36 6.56,-2.7 12.56,-6.77 17.44,-12.37 l 30.23,-34.16 c 4.4,-4.95 7.52,-10.61 9.51,-16.63 3.6,-10.9 3.34,-22.95 -0.77,-34.21 -13.06,-35.92 -4.42,-78.14 26.6,-106.11 34.26,-30.83 87.16,-33.18 123.98,-5.3 23.67,17.93 36.65,43.85 38.74,70.52 2.08,26.63 -6.71,54.01 -26.57,74.95 -24.83,26.21 -60.86,35.53 -93.65,27.68 z"
         id="path202" />
    </clipPath>
    <linearGradient
       x1="0"
       y1="0"
       x2="1"
       y2="0"
       gradientUnits="userSpaceOnUse"
       gradientTransform="matrix(407.667,0,0,-407.667,2027.72,1487.18)"
       spreadMethod="pad"
       id="linearGradient210">
      <stop
         style="stop-opacity:1;stop-color:#37ade4"
         offset="0"
         id="stop206" />
      <stop
         style="stop-opacity:1;stop-color:#3dbfd2"
         offset="1"
         id="stop208" />
    </linearGradient>
    <clipPath
       clipPathUnits="userSpaceOnUse"
       id="clipPath1063">
      <g
         id="g1067">
        <path
           d="M 64.301502,206.51742 H 564.3015 v 500 H 64.301502 Z"
           id="path1065"
           style="stroke-width:0.1" />
      </g>
    </clipPath>
    <clipPath
       clipPathUnits="userSpaceOnUse"
       id="clipPath1069">
      <g
         id="g1073">
        <path
           d="M 64.301502,206.51742 H 564.3015 v 500 H 64.301502 Z"
           id="path1071"
           style="stroke-width:0.1" />
      </g>
    </clipPath>
    <clipPath
       clipPathUnits="userSpaceOnUse"
       id="clipPath1075">
      <g
         id="g1079">
        <path
           d="M 64.301502,206.51742 H 564.3015 v 500 H 64.301502 Z"
           id="path1077"
           style="stroke-width:0.1" />
      </g>
    </clipPath>
  </defs>
  <sodipodi:namedview
     id="namedview4"
     pagecolor="#ffffff"
     bordercolor="#000000"
     borderopacity="0.25"
     inkscape:showpageshadow="2"
     inkscape:pageopacity="0.0"
     inkscape:pagecheckerboard="0"
     inkscape:deskcolor="#d1d1d1"
     showgrid="false" />
  <g
     id="g10"
     inkscape:groupmode="layer"
     inkscape:label="Page 1"
     transform="matrix(1.3333333,0,0,-1.3333333,-344.31857,562.48483)">
    <g
       id="g1093"
       transform="translate(4.0521909)">
      <g
         id="g148"
         transform="translate(64.301502,206.51742)">
        <text
           xml:space="preserve"
           transform="matrix(1,0,0,-1,197.452,95.0309)"
           style="font-variant:normal;font-weight:bold;font-size:13.9465px;font-family:Montserrat;-inkscape-font-specification:Montserrat-Bold;writing-mode:lr-tb;fill:#56c6bf;fill-opacity:1;fill-rule:nonzero;stroke:none"
           id="text152"><tspan
             x="0"
             y="0"
             sodipodi:role="line"
             id="tspan150">S A M S T E M</tspan></text>
      </g>
      <g
         id="g154"
         transform="translate(64.301502,206.51742)">
        <text
           xml:space="preserve"
           transform="matrix(1,0,0,-1,189.088,82.2422)"
           style="font-variant:normal;font-weight:500;font-size:8.39194px;font-family:Montserrat;-inkscape-font-specification:Montserrat-Medium;writing-mode:lr-tb;fill:#36ade5;fill-opacity:1;fill-rule:nonzero;stroke:none"
           id="text158"><tspan
             x="0"
             y="0"
             sodipodi:role="line"
             id="tspan156">Lorem ipsum dolor sit amet</tspan></text>
      </g>
    </g>
    <g
       id="g1107">
      <path
         d="m 338.6485,409.00842 c -3.193,0 -5.792,-2.599 -5.792,-5.792 0,-3.194 2.599,-5.793 5.792,-5.793 3.195,0 5.793,2.599 5.793,5.793 0,3.193 -2.598,5.792 -5.793,5.792 z m 0,-12.585 c -3.745,0 -6.792,3.047 -6.792,6.793 0,3.745 3.047,6.792 6.792,6.792 3.746,0 6.793,-3.047 6.793,-6.792 0,-3.746 -3.047,-6.793 -6.793,-6.793"
         style="fill:#56c6bf;fill-opacity:1;fill-rule:nonzero;stroke:none;stroke-width:0.1"
         id="path160"
         clip-path="url(#clipPath1075)" />
      <path
         d="m 273.3655,385.17342 c -3.194,0 -5.792,-2.599 -5.792,-5.793 0,-3.193 2.598,-5.792 5.792,-5.792 3.194,0 5.793,2.599 5.793,5.792 0,3.194 -2.599,5.793 -5.793,5.793 z m 0,-12.585 c -3.746,0 -6.792,3.047 -6.792,6.792 0,3.746 3.046,6.793 6.792,6.793 3.746,0 6.793,-3.047 6.793,-6.793 0,-3.745 -3.047,-6.792 -6.793,-6.792"
         style="fill:#56c6bf;fill-opacity:1;fill-rule:nonzero;stroke:none;stroke-width:0.1"
         id="path162"
         clip-path="url(#clipPath1069)" />
      <path
         d="m 326.0635,339.92242 c -3.193,0 -5.792,-2.599 -5.792,-5.792 0,-3.194 2.599,-5.793 5.792,-5.793 3.195,0 5.793,2.599 5.793,5.793 0,3.193 -2.598,5.792 -5.793,5.792 z m 0,-12.585 c -3.745,0 -6.792,3.047 -6.792,6.793 0,3.745 3.047,6.792 6.792,6.792 3.746,0 6.793,-3.047 6.793,-6.792 0,-3.746 -3.047,-6.793 -6.793,-6.793"
         style="fill:#56c6bf;fill-opacity:1;fill-rule:nonzero;stroke:none;stroke-width:0.1"
         id="path164"
         clip-path="url(#clipPath1063)" />
      <g
         id="g166"
         transform="matrix(0.1,0,0,0.1,64.301502,206.51742)">
        <g
           id="g168"
           clip-path="url(#clipPath172)">
          <path
             d="m 2155.32,1883.59 c 26.28,-22.35 63.51,-30.18 98,-17.12 33.86,12.86 56.34,42.41 61.74,75.69 3.04,18.06 15.7,33.08 33.08,38.97 l 42.01,14.23 c 16.56,5.55 34.6,1.86 48.04,-9.18 14.55,-11.94 31.17,-20.66 49.11,-26.36 16.42,-5.21 29.4,-18.06 33.8,-34.94 l 1.87,-6.97 c 4.7,-18.25 -1.67,-37.1 -15.32,-50.06 -24.54,-23.26 -36.32,-58.61 -27.78,-93.84 12.96,-53.59 67.73,-86.09 121.23,-71.17 47.22,13.06 78.13,60.96 70.38,109.35 -6.47,40.74 -36.61,70.78 -73.33,79.71 -17.86,4.42 -32.39,17.37 -37,35.14 -5.75,21.65 0.45,44.61 16.04,60.68 23.61,24.3 33.7,59.98 23.88,94.49 -0.97,3.39 -2.05,6.77 -3.41,10.13 -17.66,44.17 -66.55,69.5 -112.78,58.6 -40.05,-9.52 -67.83,-41.62 -74.11,-78.81 -0.71,-4.05 -1.91,-7.91 -3.45,-11.62 -5.35,-12.84 -15.46,-23.18 -28.95,-27.75 l -43.19,-14.63 c -7.94,-2.69 -16.13,-3.05 -23.99,-1.61 -9.62,1.76 -18.76,6.28 -26.27,13.19 -28.17,26.02 -70.38,34.36 -108.17,16.6 -41.72,-19.73 -64.4,-67.64 -52.91,-112.3 5.34,-20.71 16.69,-37.84 31.48,-50.42"
             style="fill:url(#linearGradient178);fill-opacity:1;fill-rule:nonzero;stroke:none"
             id="path180" />
        </g>
      </g>
      <g
         id="g182"
         transform="matrix(0.1,0,0,0.1,64.301502,206.51742)">
        <g
           id="g184"
           clip-path="url(#clipPath188)">
          <path
             d="m 2887.93,1825.64 c -7.46,2.41 -14.95,3.83 -22.36,4.46 -48.71,4.12 -93.83,-28.7 -103.88,-77.69 -7.26,-35.43 5.69,-70.28 30.92,-92.66 13.65,-12.17 19.53,-30.92 15.22,-48.79 l -10.41,-43.09 c -4.42,-18.06 -18.56,-31.81 -36.52,-36.61 -16.09,-4.22 -30.82,-12.57 -42.7,-24.06 -13.45,-12.96 -32.59,-17.96 -50.35,-12.36 l -6.88,2.26 c -17.96,5.69 -30.43,21.1 -34.06,39.56 -6.57,33.17 -30.22,62.03 -64.48,73.72 -52.23,17.66 -108.96,-11.19 -125.07,-64.4 -14.13,-46.92 9.82,-98.65 54.78,-117.99 36.56,-15.59 76.3,-7.53 103.57,16.55 16.49,14.57 39.31,19.62 60.26,12.9 17.96,-5.7 30.43,-21.11 34.07,-39.66 2.32,-11.64 6.76,-22.7 12.97,-32.69 13.96,-22.39 36.93,-39.23 65.45,-44.46 46.73,-8.64 94.24,19.04 109.75,64 13.45,38.97 1.07,79.51 -26.9,104.84 -13.65,12.27 -20.32,30.53 -16,48.29 l 10.8,44.37 c 4.32,18.06 18.75,31.51 36.71,36.31 36.91,9.82 66.55,41.14 71.66,82.47 5.69,45.83 -22.68,90.59 -66.55,104.73"
             style="fill:url(#linearGradient194);fill-opacity:1;fill-rule:nonzero;stroke:none"
             id="path196" />
        </g>
      </g>
      <g
         id="g198"
         transform="matrix(0.1,0,0,0.1,64.301502,206.51742)">
        <g
           id="g200"
           clip-path="url(#clipPath204)">
          <path
             d="m 2304.16,1386.86 c -17.86,-4.31 -36.51,1.67 -48.68,15.41 l -27.28,30.92 c -13.5,15.31 -16.68,36.56 -10.25,55.95 4.92,14.83 6.26,30.7 3.76,46.04 -2.85,18.46 3.93,37 18.75,48.29 l 1.66,1.27 c 17.08,13.03 39.56,14.9 59.53,7 30.29,-11.96 65.73,-8.64 93.9,12.06 44.37,32.68 53.21,95.81 18.75,139.38 -30.33,38.49 -86.38,48.4 -128,22.58 -35.04,-21.69 -51.14,-61.06 -45.25,-98.46 2.94,-18.15 -3.44,-36.51 -18.07,-47.7 l -6.38,-4.91 c -14.92,-11.48 -34.75,-12.86 -52.02,-5.3 -15.92,7.03 -33.37,9.41 -50.5,7.47 -20.89,-2.35 -41.28,-11.26 -57.67,-27.49 -33.87,-33.38 -38.29,-88.15 -10.41,-126.63 24.25,-33.38 64.59,-46.43 101.4,-37.89 10.64,2.45 21.58,1.59 31.25,-2.36 6.56,-2.7 12.56,-6.77 17.44,-12.37 l 30.23,-34.16 c 4.4,-4.95 7.52,-10.61 9.51,-16.63 3.6,-10.9 3.34,-22.95 -0.77,-34.21 -13.06,-35.92 -4.42,-78.14 26.6,-106.11 34.26,-30.83 87.16,-33.18 123.98,-5.3 23.67,17.93 36.65,43.85 38.74,70.52 2.08,26.63 -6.71,54.01 -26.57,74.95 -24.83,26.21 -60.86,35.53 -93.65,27.68"
             style="fill:url(#linearGradient210);fill-opacity:1;fill-rule:nonzero;stroke:none"
             id="path212" />
        </g>
      </g>
    </g>
  </g>
</svg>
